<?xml version="1.0" encoding="UTF-8" standalone="no"?>
<svg
   xmlns:dc="http://purl.org/dc/elements/1.1/"
   xmlns:cc="http://creativecommons.org/ns#"
   xmlns:rdf="http://www.w3.org/1999/02/22-rdf-syntax-ns#"
   xmlns:svg="http://www.w3.org/2000/svg"
   xmlns="http://www.w3.org/2000/svg"
   xmlns:sodipodi="http://sodipodi.sourceforge.net/DTD/sodipodi-0.dtd"
   xmlns:inkscape="http://www.inkscape.org/namespaces/inkscape"
   version="1.1"
   x="0px"
   y="0px"
   viewBox="0 0 66.966873 83.653755"
   enable-background="new 0 0 100 100"
   xml:space="preserve"
   id="svg8446"
   inkscape:version="0.91 r13725"
   sodipodi:docname="noun_110451_cc.svg"
   width="66.966873"
   height="83.653755"><metadata
     id="metadata8478"><rdf:RDF><cc:Work
         rdf:about=""><dc:format>image/svg+xml</dc:format><dc:type
           rdf:resource="http://purl.org/dc/dcmitype/StillImage" /><dc:title></dc:title></cc:Work></rdf:RDF></metadata><defs
     id="defs8476" /><sodipodi:namedview
     pagecolor="#ffffff"
     bordercolor="#666666"
     borderopacity="1"
     objecttolerance="10"
     gridtolerance="10"
     guidetolerance="10"
     inkscape:pageopacity="0"
     inkscape:pageshadow="2"
     inkscape:window-width="717"
     inkscape:window-height="480"
     id="namedview8474"
     showgrid="false"
     fit-margin-top="0"
     fit-margin-left="0"
     fit-margin-right="0"
     fit-margin-bottom="0"
     inkscape:zoom="1.888"
     inkscape:cx="33.114774"
     inkscape:cy="28.886"
     inkscape:window-x="0"
     inkscape:window-y="23"
     inkscape:window-maximized="0"
     inkscape:current-layer="svg8446" /><g
     id="g8448"
     transform="translate(-16.885226,-7.732241)"><path
       d="m 57.199,31.479 c 0.647,0 1.172,-0.524 1.172,-1.172 0,-0.648 -0.524,-1.171 -1.172,-1.171 l -5.167,0 c -0.648,0 -1.172,0.523 -1.172,1.171 0,0.648 0.523,1.172 1.172,1.172 l 5.167,0 z"
       id="path8450"
       inkscape:connector-curvature="0"
       style="fill:#000000" /><path
       d="m 56.019,22.131 14.171,0 c 3.098,0 5.617,2.519 5.617,5.614 0,0.647 0.523,1.171 1.172,1.171 0.647,0 1.171,-0.523 1.171,-1.171 0,-4.388 -3.571,-7.958 -7.96,-7.958 l -14.171,0 c -0.647,0 -1.172,0.524 -1.172,1.172 0,0.648 0.524,1.172 1.172,1.172 z"
       id="path8452"
       inkscape:connector-curvature="0"
       style="fill:#000000" /><path
       d="m 76.979,30.82 c -0.648,0 -1.172,0.524 -1.172,1.172 l 0,4.529 c 0,0.647 0.523,1.172 1.172,1.172 0.647,0 1.171,-0.524 1.171,-1.172 l 0,-4.529 C 78.149,31.345 77.626,30.82 76.979,30.82 Z"
       id="path8454"
       inkscape:connector-curvature="0"
       style="fill:#000000" /><path
       d="m 82.095,42.973 c 0.648,0 1.172,-0.523 1.172,-1.172 l 0,-4.799 c 0,-0.647 -0.523,-1.172 -1.172,-1.172 -0.647,0 -1.171,0.524 -1.171,1.172 l 0,4.799 c 0,0.648 0.523,1.172 1.171,1.172 z"
       id="path8456"
       inkscape:connector-curvature="0"
       style="fill:#000000" /><path
       d="m 80.071,45.725 c -0.691,-1.614 -2.869,-4.106 -6.903,-3.157 -0.064,0.019 -0.12,0.053 -0.184,0.073 l 0,-13.565 c 0,-2.39 -1.944,-4.334 -4.334,-4.334 l -28.069,0 c -2.389,0 -4.333,1.944 -4.333,4.334 l 0,8.184 c -0.486,-0.002 -0.975,0.041 -1.457,0.18 -1.333,0.381 -2.446,1.26 -3.134,2.473 -0.69,1.214 -0.876,2.619 -0.522,3.959 0.358,1.354 1.222,2.479 2.429,3.162 l 2.685,1.527 0,0.938 -0.746,-0.075 c -1.303,-0.295 -2.645,-0.082 -3.802,0.613 -1.188,0.716 -2.034,1.853 -2.385,3.204 -0.727,2.803 0.931,5.665 3.694,6.382 0.053,0.014 0.105,0.024 0.159,0.033 l 3.079,0.499 0,0.261 -2.141,0.329 c -2.817,0.472 -4.721,3.177 -4.243,6.033 0.43,2.568 2.645,4.396 5.111,4.396 0.274,0 0.552,-0.022 0.828,-0.068 l 0.444,-0.065 0,8.266 c 0,2.39 1.944,4.334 4.333,4.334 l 0.93,0 c 0.481,1.348 0.801,2.5 1.083,3.535 0.293,1.074 0.569,2.089 0.973,3.103 0.274,0.688 0.936,1.107 1.633,1.107 0.218,0 0.438,-0.041 0.651,-0.125 0.901,-0.359 1.341,-1.383 0.981,-2.284 -0.33,-0.827 -0.569,-1.707 -0.847,-2.725 -0.216,-0.79 -0.456,-1.653 -0.763,-2.611 l 15.579,0 c 0.97,0 1.758,-0.787 1.758,-1.757 0,-0.971 -0.788,-1.758 -1.758,-1.758 l -20.219,0 c -0.45,0 -0.818,-0.367 -0.818,-0.819 l 0,-50.231 c 0,-0.451 0.368,-0.818 0.818,-0.818 l 28.069,0 c 0.451,0 0.819,0.367 0.819,0.818 l 0,18.156 c -0.011,0.141 -10e-4,0.282 0,0.425 l 0,9.601 c -0.355,1.36 -0.924,2.744 -1.799,4.022 l 0,-27.89 c 0,-0.647 -0.524,-1.172 -1.172,-1.172 l -23.765,0 c -0.647,0 -1.172,0.524 -1.172,1.172 l 0,39.585 c 0,0.647 0.524,1.171 1.172,1.171 l 18.173,0 c -0.021,1.048 0.146,2.076 0.602,3.039 0.416,0.876 1.462,1.254 2.341,0.835 0.877,-0.415 1.251,-1.464 0.835,-2.341 -1.21,-2.555 1.586,-7.433 4.697,-10.885 1.934,-2.145 2.994,-4.611 3.565,-6.96 0.001,-0.005 0.002,-0.01 0.003,-0.015 1.121,-4.631 0.301,-8.792 0.247,-9.051 -0.019,-0.088 -0.044,-0.174 -0.075,-0.258 -0.077,-0.207 -0.116,-0.419 -0.137,-0.631 l 0,-0.458 c 0.024,-0.243 0.078,-0.478 0.182,-0.683 0.202,-0.4 0.528,-0.666 0.887,-0.771 1.921,-0.451 2.605,0.689 2.801,1.174 0.053,0.142 0.122,0.275 0.208,0.4 1.133,1.631 3.291,9.714 3.276,17.496 -0.017,8.318 -4.256,17.672 -10.55,23.275 -0.725,0.646 -0.789,1.756 -0.144,2.48 0.347,0.391 0.828,0.59 1.313,0.59 0.415,0 0.833,-0.146 1.167,-0.445 C 79.12,84.708 83.833,74.302 83.852,65.043 83.869,56.806 81.667,48.288 80.071,45.725 Z M 35.299,43.978 c -0.38,-0.216 -0.65,-0.571 -0.764,-1.003 -0.118,-0.446 -0.056,-0.916 0.178,-1.327 0.231,-0.408 0.604,-0.702 1.046,-0.829 0.162,-0.047 0.326,-0.045 0.489,-0.041 l 0,3.739 -0.949,-0.539 z M 33.826,56.2 c -0.847,-0.257 -1.342,-1.175 -1.107,-2.079 0.118,-0.454 0.4,-0.836 0.794,-1.073 0.383,-0.231 0.824,-0.3 1.25,-0.187 0.087,0.021 0.175,0.038 0.266,0.047 l 1.22,0.123 0,3.562 -2.423,-0.393 z m 1.432,11.433 c -0.916,0.147 -1.77,-0.494 -1.927,-1.436 -0.158,-0.944 0.45,-1.835 1.332,-1.982 l 1.585,-0.244 0,3.516 -0.99,0.146 z m 25.988,4.171 -17.341,0 0,-37.241 21.422,0 0,29.62 c -1.411,1.823 -3.306,4.672 -4.081,7.621 z"
       id="path8458"
       inkscape:connector-curvature="0"
       style="fill:#000000" /><path
       d="m 19.699,30.678 4.581,3.094 c 0.302,0.204 0.644,0.301 0.982,0.301 0.564,0 1.118,-0.271 1.458,-0.773 l 3.096,-4.579 c 0.543,-0.805 0.331,-1.897 -0.473,-2.44 -0.806,-0.543 -1.897,-0.332 -2.441,0.473 l -0.761,1.126 c -0.004,-0.017 -0.003,-0.032 -0.007,-0.048 -0.627,-2.567 -0.329,-5.291 0.838,-7.67 1.332,-2.714 3.641,-4.746 6.502,-5.723 2.414,-0.822 4.977,-0.801 7.349,0.024 l -1.113,0.38 c -0.918,0.313 -1.409,1.313 -1.096,2.231 0.249,0.731 0.933,1.19 1.664,1.19 0.188,0 0.38,-0.03 0.567,-0.094 l 5.23,-1.785 c 0.919,-0.313 1.409,-1.313 1.096,-2.231 L 45.386,8.924 C 45.073,8.005 44.073,7.513 43.156,7.827 42.237,8.141 41.746,9.14 42.059,10.058 l 0.435,1.272 C 39.24,10.06 35.681,9.971 32.339,11.111 c -3.75,1.279 -6.776,3.943 -8.522,7.5 -1.496,3.051 -1.894,6.533 -1.14,9.835 l -1.009,-0.683 c -0.805,-0.543 -1.896,-0.331 -2.441,0.473 -0.543,0.805 -0.332,1.898 0.472,2.442 z"
       id="path8460"
       inkscape:connector-curvature="0"
       style="fill:#000000" /><path
       d="m 28.747,61.922 c 0.191,-0.259 0.267,-0.584 0.211,-0.899 -0.056,-0.315 -0.238,-0.595 -0.506,-0.772 -2.577,-1.709 -3.775,-4.91 -2.983,-7.967 0.162,-0.625 -0.214,-1.266 -0.84,-1.428 -0.625,-0.169 -1.267,0.214 -1.428,0.84 -0.944,3.639 0.267,7.44 3.027,9.807 -0.427,0.75 -0.753,1.553 -0.97,2.395 -0.722,2.784 -0.199,5.719 1.433,8.053 0.228,0.326 0.591,0.5 0.961,0.5 0.23,0 0.466,-0.068 0.67,-0.212 0.53,-0.371 0.659,-1.101 0.289,-1.632 -1.238,-1.77 -1.633,-4.002 -1.085,-6.121 0.241,-0.929 0.652,-1.792 1.221,-2.564 z"
       id="path8462"
       inkscape:connector-curvature="0"
       style="fill:#000000" /><path
       d="m 27.271,38.672 c -0.629,-0.17 -1.266,0.213 -1.428,0.841 -0.501,1.934 -0.407,3.94 0.271,5.802 0.173,0.477 0.622,0.771 1.101,0.771 0.133,0 0.268,-0.022 0.4,-0.07 0.607,-0.221 0.923,-0.893 0.7,-1.502 -0.514,-1.414 -0.584,-2.941 -0.203,-4.415 0.162,-0.626 -0.214,-1.266 -0.841,-1.427 z"
       id="path8464"
       inkscape:connector-curvature="0"
       style="fill:#000000" /><path
       d="m 19.47,55.148 c 0.162,-0.625 -0.214,-1.266 -0.84,-1.428 -0.626,-0.17 -1.267,0.214 -1.429,0.84 -0.89,3.432 0.133,7.064 2.669,9.481 0.228,0.217 0.519,0.324 0.809,0.324 0.31,0 0.618,-0.122 0.849,-0.363 0.445,-0.469 0.429,-1.21 -0.039,-1.657 -1.923,-1.829 -2.696,-4.587 -2.019,-7.197 z"
       id="path8466"
       inkscape:connector-curvature="0"
       style="fill:#000000" /><path
       d="m 66.604,17.014 4.799,0 c 0.647,0 1.172,-0.523 1.172,-1.172 0,-0.647 -0.524,-1.172 -1.172,-1.172 l -4.799,0 c -0.648,0 -1.172,0.524 -1.172,1.172 0.001,0.648 0.524,1.172 1.172,1.172 z"
       id="path8468"
       inkscape:connector-curvature="0"
       style="fill:#000000" /></g></svg>