<?xml version="1.0" encoding="UTF-8" standalone="no"?>
<svg
   xmlns:dc="http://purl.org/dc/elements/1.1/"
   xmlns:cc="http://creativecommons.org/ns#"
   xmlns:rdf="http://www.w3.org/1999/02/22-rdf-syntax-ns#"
   xmlns:svg="http://www.w3.org/2000/svg"
   xmlns="http://www.w3.org/2000/svg"
   xmlns:sodipodi="http://sodipodi.sourceforge.net/DTD/sodipodi-0.dtd"
   xmlns:inkscape="http://www.inkscape.org/namespaces/inkscape"
   version="1.1"
   x="0px"
   y="0px"
   viewBox="0 0 87.270943 99.921097"
   enable-background="new 0 0 100 100"
   xml:space="preserve"
   id="svg6600"
   inkscape:version="0.91 r13725"
   sodipodi:docname="noun_15818_cc.svg"
   width="87.270943"
   height="99.921097"><metadata
     id="metadata6620"><rdf:RDF><cc:Work
         rdf:about=""><dc:format>image/svg+xml</dc:format><dc:type
           rdf:resource="http://purl.org/dc/dcmitype/StillImage" /><dc:title></dc:title></cc:Work></rdf:RDF></metadata><defs
     id="defs6618" /><sodipodi:namedview
     pagecolor="#ffffff"
     bordercolor="#666666"
     borderopacity="1"
     objecttolerance="10"
     gridtolerance="10"
     guidetolerance="10"
     inkscape:pageopacity="0"
     inkscape:pageshadow="2"
     inkscape:window-width="717"
     inkscape:window-height="480"
     id="namedview6616"
     showgrid="false"
     fit-margin-top="0"
     fit-margin-left="0"
     fit-margin-right="0"
     fit-margin-bottom="0"
     inkscape:zoom="2.274513"
     inkscape:cx="40.514945"
     inkscape:cy="39.468599"
     inkscape:window-x="0"
     inkscape:window-y="23"
     inkscape:window-maximized="0"
     inkscape:current-layer="svg6600" /><path
     d="m 55.581945,11.812 0,79.556 19.616,6.721 5.013,0 0,-92.527 -24.629,6.25 z m 3.564,44.493 c -0.801,0 -1.449,-1.125 -1.449,-2.512 0,-1.387 0.648,-2.512 1.449,-2.512 0.801,0 1.45,1.125 1.45,2.512 0,1.387 -0.649,2.512 -1.45,2.512 z"
     id="path6602"
     inkscape:connector-curvature="0"
     style="fill:#000000" /><polygon
     points="31.637,72.462 31.637,98.003 36.057,98.003 36.057,77.739 "
     id="polygon6604"
     style="fill:#000000"
     transform="translate(-6.2410548,0)" /><path
     d="m 25.395945,0 0,17.658 c 1.293,-0.797 2.804,-1.272 4.419,-1.319 l 0,-11.713 53.035,0 0,93.376 4.421,0 0,-98.002 -61.875,0 z"
     id="path6606"
     inkscape:connector-curvature="0"
     style="fill:#000000" /><circle
     cx="30.079945"
     cy="25.289"
     r="7.0180001"
     id="circle6608"
     style="fill:#000000" /><path
     d="m 49.268945,55.492 -10.12,-4.477 -6.438,-13.25 c -0.17,-0.454 -0.38,-0.887 -0.628,-1.295 l -0.153,-0.314 c -0.383,-0.786 -0.985,-1.371 -1.655,-1.699 -0.773,-0.586 -1.671,-1.018 -2.669,-1.238 -0.584,-0.128 -1.169,-0.169 -1.745,-0.146 -0.514,-0.016 -1.058,0.061 -1.607,0.256 -0.884,0.25 -1.717,0.672 -2.459,1.241 L 6.6819452,42.564 c -0.273,0.143 -0.515,0.312 -0.744,0.492 -0.739,0.397 -1.305,1.103 -1.473,1.993 l -2.361,12.513 c -0.295,1.563 0.734,3.072 2.299,3.367 1.565,0.295 3.073,-0.734 3.368,-2.301 l 2.215,-11.736 8.1179998,-4.295 -3.573,16.216 c -0.108,0.492 -0.149,0.959 -0.136,1.403 l -2.708,16.914 c -0.06,0.081 -0.126,0.151 -0.183,0.238 L 0.85294517,93.792 c -1.333,2.054 -1.075,4.588 0.57400003,5.655 1.648,1.068 4.063,0.271 5.396,-1.782 L 17.478945,81.242 c 0.336,-0.521 0.571,-1.07 0.708,-1.616 0.125,-0.289 0.23,-0.592 0.282,-0.918 l 2.009,-12.554 c 0.246,0.07 0.493,0.129 0.742,0.183 0.839,0.188 1.573,0.476 2.226,0.772 l 11.118,13.277 3.437,16.389 c 0.438,2.078 2.352,3.439 4.276,3.039 1.921,-0.407 3.128,-2.42 2.691,-4.504 l -3.492,-16.64 c -0.137,-0.656 -0.434,-1.229 -0.821,-1.712 -0.131,-0.229 -0.282,-0.451 -0.46,-0.662 l -11.597,-13.843 3.164,-14.353 2.754,5.667 c 0.082,0.17 0.18,0.326 0.283,0.479 0.187,0.78 0.68,1.452 1.433,1.785 l 10.702,4.735 c 1.339,0.594 2.945,-0.107 3.591,-1.564 0.643,-1.455 0.084,-3.116 -1.256,-3.71 z"
     id="path6610"
     inkscape:connector-curvature="0"
     style="fill:#000000" /></svg>