<?xml version="1.0" encoding="UTF-8" standalone="no"?>
<svg
   xmlns:dc="http://purl.org/dc/elements/1.1/"
   xmlns:cc="http://creativecommons.org/ns#"
   xmlns:rdf="http://www.w3.org/1999/02/22-rdf-syntax-ns#"
   xmlns:svg="http://www.w3.org/2000/svg"
   xmlns="http://www.w3.org/2000/svg"
   xmlns:sodipodi="http://sodipodi.sourceforge.net/DTD/sodipodi-0.dtd"
   xmlns:inkscape="http://www.inkscape.org/namespaces/inkscape"
   version="1.1"
   x="0px"
   y="0px"
   viewBox="0 0 50.411692 43.954662"
   enable-background="new 0 0 50.4 50.4"
   xml:space="preserve"
   id="svg5366"
   inkscape:version="0.91 r13725"
   sodipodi:docname="noun_28242_cc.svg"
   width="50.411694"
   height="43.954662"><metadata
     id="metadata5380"><rdf:RDF><cc:Work
         rdf:about=""><dc:format>image/svg+xml</dc:format><dc:type
           rdf:resource="http://purl.org/dc/dcmitype/StillImage" /><dc:title></dc:title></cc:Work></rdf:RDF></metadata><defs
     id="defs5378" /><sodipodi:namedview
     pagecolor="#ffffff"
     bordercolor="#666666"
     borderopacity="1"
     objecttolerance="10"
     gridtolerance="10"
     guidetolerance="10"
     inkscape:pageopacity="0"
     inkscape:pageshadow="2"
     inkscape:window-width="717"
     inkscape:window-height="480"
     id="namedview5376"
     showgrid="false"
     fit-margin-top="0"
     fit-margin-left="0"
     fit-margin-right="0"
     fit-margin-bottom="0"
     inkscape:zoom="3.3102874"
     inkscape:cx="25.205847"
     inkscape:cy="21.97733"
     inkscape:window-x="0"
     inkscape:window-y="23"
     inkscape:window-maximized="0"
     inkscape:current-layer="svg5366" /><g
     id="g5368"
     transform="translate(0,-6.449)"><path
       d="m 49.009,21.486 -6.618,-6.921 2.582,-6.285 -3.251,2.781 1.076,-4.612 -12.939,12.09 c -0.447,-1.896 -1.956,-3.375 -3.858,-3.766 l 0,-1.161 c 0,-2.441 -1.801,-4.426 -4.014,-4.426 l -4.19,0 c -1.623,0 -3.016,1.073 -3.647,2.604 l -3.948,0 c -2.348,0 -4.258,2.186 -4.258,4.872 l 0,3.992 c 0,0.167 0.026,0.324 0.04,0.485 l -0.848,0 c -1.431,0 -2.643,0.51 -3.641,1.527 C 0.497,23.686 0,24.911 0,26.336 l 0,8.561 2.854,0 0,-7.94 9.346,0 c -0.316,-0.493 -0.505,-1.078 -0.505,-1.708 l 0,-5.551 c 0,-1.734 1.396,-3.147 3.113,-3.147 l 1.132,0 0,11.848 -0.718,0 0,0.025 -11.63,0 1.974,5.254 -1.899,2.996 0,11.344 c 0,0.611 0.334,2.322 2.051,2.322 1.678,0 2.044,-1.711 2.044,-2.322 l 0,-9.568 2.325,-3.608 0,4.172 4.312,10.094 c 0.514,1.143 1.81,1.678 3.031,0.99 1.2,-0.674 0.878,-2.251 0.535,-3.013 l -3.566,-8.596 2.538,-3.275 c 0,0 2.379,1.847 5.465,2.378 l 0,-9.081 1.411,0 0,9.235 c 3.638,0.196 5.917,-0.621 5.917,-0.621 l 0,10.894 c 0,0.783 0.519,2.322 2.161,2.322 1.642,0 2.057,-1.711 2.057,-2.322 l 0,-13.303 2.866,-5.114 c 0.667,0.179 1.353,0.308 2.028,0.308 0.688,0 1.366,-0.118 1.994,-0.4 2.147,-0.972 3.031,-2.519 3.404,-3.633 l 2.222,0.889 c 1.317,0.458 2.243,0.265 2.887,-0.302 0.634,-0.556 0.92,-1.186 1.034,-1.958 0.128,-0.863 -0.145,-1.776 -1.374,-3.02 z M 13.784,14.771 c -2.268,0.478 -3.976,2.505 -3.976,4.927 l 0,1.44 -1.974,0 C 7.813,20.977 7.775,20.821 7.775,20.653 l 0,-3.992 c 0,-1.676 1.088,-3.04 2.427,-3.04 l 3.582,0 0,1.15 z m 8.412,13.626 -4.425,0 0,-11.847 4.425,0 0,11.847 z m -6.56,-13.735 0,-1.05 c 0,-1.418 0.969,-2.574 2.161,-2.574 l 4.19,0 c 1.192,0 2.163,1.155 2.163,2.574 l 0,1.05 -8.514,0 z M 28.12,25.249 c 0,1.737 -1.396,3.149 -3.114,3.149 l -0.979,0 0,-11.848 0.979,0 c 1.717,0 3.114,1.413 3.114,3.147 l 0,5.552 z m 12.15,3.008 c -0.821,0.37 -1.797,0.341 -2.771,0.121 l 2.381,-4.246 3.09,1.236 c -0.269,0.843 -0.949,2.098 -2.7,2.889 z"
       id="path5370"
       inkscape:connector-curvature="0" /></g></svg>