<?xml version="1.0" encoding="UTF-8" standalone="no"?>
<svg
   xmlns:dc="http://purl.org/dc/elements/1.1/"
   xmlns:cc="http://creativecommons.org/ns#"
   xmlns:rdf="http://www.w3.org/1999/02/22-rdf-syntax-ns#"
   xmlns:svg="http://www.w3.org/2000/svg"
   xmlns="http://www.w3.org/2000/svg"
   xmlns:sodipodi="http://sodipodi.sourceforge.net/DTD/sodipodi-0.dtd"
   xmlns:inkscape="http://www.inkscape.org/namespaces/inkscape"
   version="1.1"
   x="0px"
   y="0px"
   viewBox="0 0 72.477715 73.773163"
   enable-background="new 0 0 100 100"
   xml:space="preserve"
   id="svg5980"
   inkscape:version="0.91 r13725"
   sodipodi:docname="noun_110488_cc.svg"
   width="72.477715"
   height="73.773163"><metadata
     id="metadata5998"><rdf:RDF><cc:Work
         rdf:about=""><dc:format>image/svg+xml</dc:format><dc:type
           rdf:resource="http://purl.org/dc/dcmitype/StillImage" /><dc:title></dc:title></cc:Work></rdf:RDF></metadata><defs
     id="defs5996" /><sodipodi:namedview
     pagecolor="#ffffff"
     bordercolor="#666666"
     borderopacity="1"
     objecttolerance="10"
     gridtolerance="10"
     guidetolerance="10"
     inkscape:pageopacity="0"
     inkscape:pageshadow="2"
     inkscape:window-width="717"
     inkscape:window-height="480"
     id="namedview5994"
     showgrid="false"
     fit-margin-top="0"
     fit-margin-left="0"
     fit-margin-right="0"
     fit-margin-bottom="0"
     inkscape:zoom="1.888"
     inkscape:cx="35.80803"
     inkscape:cy="14.076944"
     inkscape:window-x="0"
     inkscape:window-y="23"
     inkscape:window-maximized="0"
     inkscape:current-layer="svg5980" /><g
     id="g5982"
     transform="translate(-14.19197,-13.325841)"><path
       d="m 35.322,22.713 -1.785,-5.23 c -0.313,-0.919 -1.313,-1.41 -2.231,-1.096 -0.918,0.313 -1.41,1.313 -1.096,2.23 l 0.421,1.235 c -2.71,-1.242 -5.743,-1.406 -8.577,-0.439 -2.936,1.003 -5.307,3.089 -6.674,5.874 -1.197,2.441 -1.502,5.236 -0.858,7.872 0.196,0.803 0.915,1.341 1.706,1.341 0.138,0 0.278,-0.016 0.418,-0.051 0.943,-0.229 1.521,-1.181 1.291,-2.123 -0.448,-1.838 -0.235,-3.787 0.6,-5.49 0.953,-1.943 2.607,-3.397 4.654,-4.097 1.935,-0.66 4,-0.562 5.862,0.257 l -1.191,0.406 c -0.919,0.313 -1.41,1.313 -1.096,2.23 0.25,0.731 0.933,1.19 1.664,1.19 0.188,0 0.38,-0.03 0.568,-0.094 l 5.23,-1.785 c 0.916,-0.312 1.407,-1.311 1.094,-2.23 z"
       id="path5984"
       inkscape:connector-curvature="0"
       style="fill:#000000" /><path
       d="m 86.126,33.396 c 1.159,-2.089 0.404,-4.732 -1.685,-5.893 L 59.906,13.87 c -2.087,-1.16 -4.731,-0.404 -5.895,1.684 l -3.975,7.153 c -0.423,-0.238 -0.871,-0.438 -1.358,-0.551 -1.353,-0.312 -2.75,-0.086 -3.942,0.638 -1.192,0.728 -2.037,1.866 -2.379,3.209 -0.346,1.358 -0.137,2.759 0.586,3.943 l 1.604,2.638 -0.456,0.82 -0.614,-0.428 C 42.5,32.097 41.25,31.655 39.91,31.663 c -1.406,0.035 -2.719,0.618 -3.693,1.644 -0.962,1.011 -1.482,2.33 -1.464,3.717 0.02,1.4 0.585,2.699 1.592,3.657 0.04,0.037 0.082,0.073 0.124,0.106 l 2.448,1.931 -0.127,0.229 -2.031,-0.752 c -2.691,-0.957 -5.667,0.484 -6.639,3.212 -0.466,1.313 -0.403,2.73 0.179,3.987 0.588,1.271 1.633,2.228 2.911,2.681 l 0.419,0.158 -4.015,7.226 c -1.159,2.09 -0.405,4.732 1.683,5.895 l 0.813,0.451 c -0.234,1.414 -0.515,2.577 -0.771,3.619 -0.266,1.08 -0.517,2.102 -0.656,3.182 -0.125,0.962 0.555,1.844 1.519,1.967 0.076,0.011 0.151,0.015 0.227,0.015 0.871,0 1.627,-0.646 1.741,-1.533 0.114,-0.882 0.332,-1.767 0.583,-2.79 0.195,-0.797 0.404,-1.669 0.602,-2.656 l 13.618,7.568 c 0.27,0.149 0.563,0.221 0.853,0.221 0.617,0 1.217,-0.326 1.537,-0.904 0.473,-0.848 0.166,-1.919 -0.683,-2.391 L 33.007,62.283 C 32.612,62.062 32.469,61.562 32.689,61.168 L 57.085,17.264 c 0.222,-0.396 0.722,-0.535 1.115,-0.318 l 24.535,13.635 c 0.395,0.218 0.538,0.718 0.318,1.113 L 69.485,56.103 c -0.604,-0.29 -1.156,-0.537 -1.642,-0.747 l 11.54,-20.768 c 0.314,-0.564 0.111,-1.277 -0.455,-1.592 L 58.155,21.452 c -0.565,-0.317 -1.279,-0.11 -1.593,0.455 L 37.334,56.508 c -0.151,0.271 -0.188,0.592 -0.103,0.891 0.086,0.299 0.286,0.551 0.559,0.702 l 16.821,9.348 c -0.566,0.415 -1.088,0.897 -1.527,1.47 -0.59,0.771 -0.445,1.875 0.325,2.465 0.769,0.591 1.873,0.444 2.465,-0.324 1.032,-1.348 3.267,-2.012 5.062,-2.545 1.498,-0.446 2.682,-0.798 3.396,-1.586 0.695,-0.765 0.982,-1.709 0.811,-2.658 -0.326,-1.801 -2.188,-2.996 -2.978,-3.428 -0.393,-0.336 -0.642,-0.793 -0.708,-1.299 -0.069,-0.517 0.068,-1.025 0.384,-1.436 0.304,-0.389 0.869,-1.119 3.243,-0.102 l 0.384,0.16 c 3.512,1.466 6.114,2.946 7.814,4.426 0.016,0.014 0.032,0.025 0.049,0.039 1.071,0.941 1.782,1.883 2.106,2.818 0.339,0.979 0.227,1.918 -0.354,2.955 -4.056,7.264 -12.305,13.381 -20.527,15.222 -0.946,0.212 -1.543,1.152 -1.33,2.1 0.183,0.817 0.908,1.373 1.714,1.373 0.127,0 0.256,-0.014 0.386,-0.042 9.139,-2.047 18.313,-8.854 22.826,-16.938 1.059,-1.896 1.269,-3.908 0.606,-5.818 -0.502,-1.453 -1.481,-2.744 -2.674,-3.881 L 75.004,53.408 86.126,33.396 Z M 45.945,28.117 c -0.227,-0.372 -0.291,-0.814 -0.181,-1.247 0.113,-0.446 0.398,-0.828 0.801,-1.073 0.399,-0.245 0.866,-0.321 1.317,-0.218 0.164,0.038 0.306,0.12 0.447,0.201 l -1.817,3.27 -0.567,-0.933 z m -7.224,9.971 c -0.286,-0.296 -0.446,-0.688 -0.452,-1.113 -0.005,-0.459 0.168,-0.901 0.495,-1.243 0.328,-0.346 0.767,-0.541 1.233,-0.553 0.4,-0.031 0.853,0.146 1.164,0.442 0.065,0.063 0.135,0.121 0.209,0.172 l 1.006,0.7 -1.729,3.112 -1.926,-1.517 z M 34.419,48.773 C 34.007,48.628 33.677,48.324 33.49,47.919 33.297,47.5 33.276,47.026 33.433,46.585 c 0.32,-0.903 1.284,-1.385 2.128,-1.086 l 1.501,0.556 -1.708,3.072 -0.935,-0.354 z m 24.642,7.184 c -0.893,1.155 -1.28,2.591 -1.089,4.043 0.193,1.48 0.96,2.799 2.156,3.713 0.079,0.061 0.17,0.117 0.258,0.164 0.387,0.201 0.815,0.518 1.079,0.774 -0.405,0.157 -1.034,0.345 -1.531,0.492 -0.876,0.261 -1.882,0.565 -2.884,0.979 L 39.951,56.62 58.042,24.068 76.767,34.473 65.659,54.464 c -3.522,-1.215 -5.525,0.105 -6.598,1.493 z"
       id="path5986"
       inkscape:connector-curvature="0"
       style="fill:#000000" /><path
       d="m 71.159,27.832 c 0.181,0.102 0.376,0.148 0.568,0.148 0.412,0 0.812,-0.218 1.025,-0.603 0.314,-0.566 0.111,-1.279 -0.454,-1.594 l -4.517,-2.512 c -0.567,-0.315 -1.279,-0.11 -1.594,0.454 -0.315,0.566 -0.111,1.279 0.454,1.594 l 4.518,2.513 z"
       id="path5988"
       inkscape:connector-curvature="0"
       style="fill:#000000" /></g></svg>