<?xml version="1.0" encoding="UTF-8" standalone="no"?>
<svg
   xmlns:dc="http://purl.org/dc/elements/1.1/"
   xmlns:cc="http://creativecommons.org/ns#"
   xmlns:rdf="http://www.w3.org/1999/02/22-rdf-syntax-ns#"
   xmlns:svg="http://www.w3.org/2000/svg"
   xmlns="http://www.w3.org/2000/svg"
   xmlns:sodipodi="http://sodipodi.sourceforge.net/DTD/sodipodi-0.dtd"
   xmlns:inkscape="http://www.inkscape.org/namespaces/inkscape"
   version="1.1"
   x="0px"
   y="0px"
   viewBox="0 0 80.00058 45.146484"
   enable-background="new 0 0 100 45.711"
   xml:space="preserve"
   id="svg7214"
   inkscape:version="0.91 r13725"
   sodipodi:docname="noun_212277_cc.svg"
   width="80.00058"
   height="45.146484"><metadata
     id="metadata7226"><rdf:RDF><cc:Work
         rdf:about=""><dc:format>image/svg+xml</dc:format><dc:type
           rdf:resource="http://purl.org/dc/dcmitype/StillImage" /><dc:title></dc:title></cc:Work></rdf:RDF></metadata><defs
     id="defs7224" /><sodipodi:namedview
     pagecolor="#ffffff"
     bordercolor="#666666"
     borderopacity="1"
     objecttolerance="10"
     gridtolerance="10"
     guidetolerance="10"
     inkscape:pageopacity="0"
     inkscape:pageshadow="2"
     inkscape:window-width="717"
     inkscape:window-height="480"
     id="namedview7222"
     showgrid="false"
     fit-margin-top="0"
     fit-margin-left="0"
     fit-margin-right="0"
     fit-margin-bottom="0"
     inkscape:zoom="1.888"
     inkscape:cx="135.22034"
     inkscape:cy="5.785156"
     inkscape:window-x="0"
     inkscape:window-y="23"
     inkscape:window-maximized="0"
     inkscape:current-layer="svg7214" /><path
     style="fill:#000000"
     d="m 44.429688,0 c -1.161882,0 -2.105469,0.943779 -2.105469,2.109375 0,0.917859 0.587484,1.688666 1.40625,1.978515 l 0,4.056641 -0.04297,0.511719 C 31.357647,9.865748 26.784579,15.515449 19.945312,18.554687 14.165046,21.123604 5.383961,24.936883 3.322266,26.310547 -0.0018889,28.526648 0,30.742425 0,35.173828 c 0,4.432202 2.215539,4.431641 4.431641,4.431641 l 5.617187,0 c -0.0456,-0.363216 -0.07617,-0.730605 -0.07617,-1.107422 0,-4.887424 3.975055,-8.863281 8.863282,-8.863281 4.887422,0 8.863281,3.975857 8.863281,8.863281 0,0.376817 -0.03251,0.744206 -0.07813,1.107422 l 24.509765,0 2.236329,0 c -0.0456,-0.363216 -0.07813,-0.730605 -0.07813,-1.107422 0,-0.376816 0.03251,-0.746158 0.07813,-1.109375 0.548825,-4.365 4.275703,-7.753906 8.787109,-7.753906 4.511407,0 8.240236,3.388906 8.789062,7.753906 0.0456,0.363217 0.07422,0.732559 0.07422,1.109375 0,0.376817 -0.02861,0.744206 -0.07422,1.107422 l 2.234375,0 5.478516,0 0.111328,-0.984375 c 0.381147,-3.430288 0.252313,-6.954453 -0.08203,-10.138672 L 79.251953,25.171875 C 78.545144,20.647667 77.585466,17.373922 77.511719,17.126953 L 77.369141,16.652344 76.917969,16.441406 C 76.237133,16.123792 60.098734,8.666034 47.826172,8.582031 l -1.152344,-0.0059 -1.761719,0 -0.0078,-0.427735 0,-3.986328 c 0.936442,-0.21428 1.636719,-1.049406 1.636719,-2.052734 0,-1.164358 -0.942019,-2.109375 -2.111328,-2.109375 z m -1.478516,14.951172 3.050781,10.863281 1.494141,-3.285156 3.976562,0 c 0.427184,-0.708293 1.202824,-1.158203 2.044922,-1.158203 1.324522,0 2.402344,1.07637 2.402344,2.398437 0.0025,0.639553 -0.246263,1.24112 -0.699219,1.695313 -0.452962,0.454193 -1.055258,0.703125 -1.697265,0.703125 -0.947666,0 -1.802553,-0.56979 -2.185547,-1.408203 l -2.402344,0 -3.498047,7.691406 -2.552734,-9.988282 -3.119141,9.703126 -4.044922,-10.238282 -1.099609,2.958985 -4.035156,0 c -0.408772,0.773355 -1.223535,1.28125 -2.117188,1.28125 -1.324524,0 -2.400391,-1.075868 -2.400391,-2.400391 0,-1.32207 1.075867,-2.398438 2.400391,-2.398438 0.894879,0 1.709642,0.509848 2.117188,1.283204 l 2.482421,0 2.585938,-6.962891 3.894531,9.855469 3.402344,-10.59375 z m -24.115234,16.90039 c -3.67149,-2.41e-4 -6.647817,2.974997 -6.648438,6.646485 -2.42e-4,3.6721 2.976339,6.648678 6.648438,6.648437 3.671489,-6.22e-4 6.646726,-2.976948 6.646484,-6.648437 -6.21e-4,-3.670878 -2.975606,-6.645862 -6.646484,-6.646485 z m 44.320312,0 c -3.665768,0 -6.648438,2.980717 -6.648438,6.646485 0,3.665768 2.98267,6.648437 6.648438,6.648437 3.665768,0 6.648438,-2.982669 6.648438,-6.648437 0,-3.665768 -2.98267,-6.646485 -6.648438,-6.646485 z"
     id="path7216"
     inkscape:connector-curvature="0" /></svg>