<?xml version="1.0" encoding="UTF-8" standalone="no"?>
<svg
   xmlns:dc="http://purl.org/dc/elements/1.1/"
   xmlns:cc="http://creativecommons.org/ns#"
   xmlns:rdf="http://www.w3.org/1999/02/22-rdf-syntax-ns#"
   xmlns:svg="http://www.w3.org/2000/svg"
   xmlns="http://www.w3.org/2000/svg"
   xmlns:sodipodi="http://sodipodi.sourceforge.net/DTD/sodipodi-0.dtd"
   xmlns:inkscape="http://www.inkscape.org/namespaces/inkscape"
   version="1.1"
   x="0px"
   y="0px"
   viewBox="0 0 65.416 66.954002"
   enable-background="new 0 0 100 100"
   xml:space="preserve"
   id="svg7820"
   inkscape:version="0.91 r13725"
   sodipodi:docname="noun_75728_cc.svg"
   width="65.416"
   height="66.954002"><metadata
     id="metadata7832"><rdf:RDF><cc:Work
         rdf:about=""><dc:format>image/svg+xml</dc:format><dc:type
           rdf:resource="http://purl.org/dc/dcmitype/StillImage" /><dc:title></dc:title></cc:Work></rdf:RDF></metadata><defs
     id="defs7830" /><sodipodi:namedview
     pagecolor="#ffffff"
     bordercolor="#666666"
     borderopacity="1"
     objecttolerance="10"
     gridtolerance="10"
     guidetolerance="10"
     inkscape:pageopacity="0"
     inkscape:pageshadow="2"
     inkscape:window-width="717"
     inkscape:window-height="480"
     id="namedview7828"
     showgrid="false"
     fit-margin-top="0"
     fit-margin-left="0"
     fit-margin-right="0"
     fit-margin-bottom="0"
     inkscape:zoom="1.888"
     inkscape:cx="125.62034"
     inkscape:cy="31.9"
     inkscape:window-x="0"
     inkscape:window-y="23"
     inkscape:window-maximized="0"
     inkscape:current-layer="svg7820" /><path
     d="m 65.015,21.538 -11.907,0 0,-1.139 c 0,-0.221 -0.179,-0.4 -0.4,-0.4 l -1.159,0 c -0.006,-0.306 -0.025,-0.608 -0.046,-0.91 0.038,-0.062 0.066,-0.13 0.066,-0.208 0,-0.092 -0.036,-0.173 -0.089,-0.241 -0.078,-0.837 -0.219,-1.654 -0.403,-2.456 l 0.092,0 c 0.221,0 0.4,-0.18 0.4,-0.4 l 0,-1.538 c 0,-0.221 -0.179,-0.4 -0.4,-0.4 l -0.798,0 C 49.556,11.658 48.353,9.664 46.835,7.945 46.801,7.859 46.735,7.791 46.655,7.747 46.211,7.258 45.743,6.792 45.25,6.352 45.206,6.28 45.146,6.218 45.067,6.185 44.468,5.664 43.846,5.17 43.185,4.727 43.146,4.69 43.1,4.663 43.048,4.644 41.43,3.578 39.636,2.766 37.724,2.237 l 0,-1.837 c 0,-0.221 -0.179,-0.4 -0.4,-0.4 l -9.23,0 c -0.221,0 -0.4,0.18 -0.4,0.4 l 0,1.837 C 25.782,2.766 23.988,3.578 22.37,4.644 22.319,4.663 22.272,4.69 22.233,4.727 21.572,5.17 20.95,5.665 20.351,6.185 c -0.079,0.033 -0.139,0.094 -0.183,0.167 -0.493,0.441 -0.961,0.906 -1.405,1.395 -0.081,0.045 -0.146,0.112 -0.18,0.198 -1.518,1.719 -2.721,3.713 -3.536,5.901 l -0.798,0 c -0.221,0 -0.4,0.18 -0.4,0.4 l 0,1.538 c 0,0.221 0.179,0.4 0.4,0.4 l 0.092,0 c -0.184,0.802 -0.325,1.619 -0.403,2.456 -0.053,0.068 -0.089,0.149 -0.089,0.241 0,0.078 0.028,0.146 0.066,0.208 -0.021,0.302 -0.04,0.604 -0.046,0.91 l -1.159,0 c -0.221,0 -0.4,0.18 -0.4,0.4 l 0,1.139 -11.91,0 c -0.221,0 -0.4,0.18 -0.4,0.4 l 0,6.153 0,38.463 c 0,0.221 0.179,0.4 0.4,0.4 l 1.539,0 61.539,0 1.538,0 c 0.221,0 0.4,-0.18 0.4,-0.4 l 0,-38.462 0,-6.153 c -10e-4,-0.221 -0.18,-0.401 -0.401,-0.401 z M 28.492,0.8 l 8.431,0 0,1.23 C 35.565,1.718 34.158,1.538 32.708,1.538 c -1.45,0 -2.858,0.18 -4.215,0.492 l 0,-1.23 z m 4.216,1.539 c 3.176,0 6.16,0.831 8.756,2.276 l -17.512,0 C 26.548,3.17 29.531,2.339 32.708,2.339 Z m -10.073,3.077 20.145,0 c 0.342,0.23 0.664,0.485 0.989,0.737 l -22.123,0 c 0.325,-0.252 0.648,-0.506 0.989,-0.737 z m -1.944,1.538 24.034,0 c 0.271,0.242 0.545,0.48 0.8,0.737 l -25.634,0 c 0.255,-0.257 0.529,-0.495 0.8,-0.737 z m -1.528,1.538 27.09,0 c 1.381,1.569 2.493,3.375 3.267,5.354 l -33.625,0 c 0.775,-1.979 1.886,-3.784 3.268,-5.354 z m -4.517,6.155 36.123,0 0,0.737 -36.123,0 0,-0.737 z m 35.606,1.538 c 0.18,0.751 0.329,1.513 0.412,2.297 l -35.913,0 c 0.083,-0.784 0.232,-1.546 0.412,-2.297 l 35.089,0 z m -35.549,3.098 36.01,0 c 0.015,0.238 0.031,0.476 0.036,0.717 l -36.083,0 c 0.006,-0.241 0.022,-0.479 0.037,-0.717 z m -1.595,1.517 39.2,0 0,0.738 -39.2,0 0,-0.738 z M 0.8,22.339 l 11.908,0 40,0 11.908,0 0,5.353 -2.677,0 -1.539,0 -1.539,0 -1.539,0 -1.538,0 -1.539,0 -1.539,0 -1.539,0 -1.538,0 -1.539,0 -1.539,0 -1.539,0 -1.538,0 -1.539,0 -1.535,0 -1.539,0 -1.539,0 -1.538,0 -1.539,0 -1.539,0 -1.539,0 -1.538,0 -1.539,0 -1.539,0 -1.539,0 -1.538,0 -1.539,0 -1.535,0 -1.539,0 -1.539,0 -1.538,0 -1.539,0 -1.539,0 -1.539,0 -1.538,0 -1.539,0 -1.539,0 -1.539,0 -1.538,0 -2.674,0 0,-5.353 z m 62.277,42.277 -60.739,0 0,-0.738 1.139,0 4.615,0 6.154,0 4.615,0 1.539,0 1.539,0 1.539,0 1.538,0 4.616,0 1.538,0 1.539,0 1.539,0 1.539,0 4.613,0 1.539,0 1.539,0 1.538,0 1.539,0 4.615,0 6.154,0 4.616,0 1.139,0 0,0.738 z m -6.154,-23.858 0,19.642 0,1.539 0,1.138 -5.354,0 0,-1.138 0,-1.539 0,-19.642 c 0.878,-0.185 1.539,-0.965 1.539,-1.896 0,-0.426 -0.143,-0.817 -0.377,-1.138 l 3.031,0 c -0.234,0.32 -0.377,0.712 -0.377,1.138 0,0.931 0.661,1.711 1.538,1.896 z m 1.938,20.042 1.539,0 1.139,0 0,0.738 -3.816,0 0,-0.738 1.138,0 z m -1.138,1.539 3.816,0 0,0.737 -3.816,0 0,-0.737 z m 3.816,-2.34 -0.739,0 0,-19.577 c 0.217,0.159 0.467,0.275 0.739,0.332 l 0,19.245 z m -1.539,0 -0.739,0 0,-20.737 0.739,0 0,20.737 z m -1.538,0 -0.739,0 0,-19.245 c 0.272,-0.058 0.522,-0.173 0.739,-0.332 l 0,19.577 z m -15.385,3.077 -0.739,0 0,-2.276 0.739,0 0,2.276 z m 0.8,-6.891 0.738,0 0,3.814 -0.738,0 0,-3.814 z m -0.8,3.814 -0.739,0 0,-3.814 0.739,0 0,3.814 z m 0.8,0.801 0.738,0 0,2.276 -0.738,0 0,-2.276 z m 1.538,-0.4 0,-4.616 c 0,-0.221 -0.179,-0.4 -0.4,-0.4 l -1.538,0 -1.539,0 c -0.221,0 -0.4,0.18 -0.4,0.4 l 0,4.615 0,2.677 -0.738,0 0,-1.138 0,-1.539 0,-19.641 c 0.878,-0.185 1.539,-0.965 1.539,-1.896 0,-0.426 -0.143,-0.817 -0.377,-1.138 l 3.031,0 c -0.234,0.32 -0.377,0.712 -0.377,1.138 0,0.931 0.661,1.711 1.539,1.896 l 0,19.642 0,1.539 0,1.138 -0.739,0 0,-2.677 z m -13.107,2.676 -0.739,0 0,-2.276 0.739,0 0,2.276 z m 0.8,-6.891 0.739,0 0,3.814 -0.739,0 0,-3.814 z m -0.8,3.814 -0.739,0 0,-3.814 0.739,0 0,3.814 z m 0.8,0.801 0.739,0 0,2.276 -0.739,0 0,-2.276 z m 1.538,-0.4 0,-4.616 c 0,-0.221 -0.179,-0.4 -0.4,-0.4 l -1.539,0 -1.539,0 c -0.221,0 -0.4,0.18 -0.4,0.4 l 0,4.615 0,2.677 -0.738,0 0,-1.138 0,-1.539 0,-19.641 c 0.877,-0.185 1.538,-0.965 1.538,-1.896 0,-0.426 -0.143,-0.817 -0.377,-1.138 l 3.031,0 c -0.234,0.32 -0.377,0.712 -0.377,1.138 0,0.931 0.661,1.711 1.539,1.896 l 0,19.642 0,1.539 0,1.138 -0.739,0 0,-2.677 z m -13.107,2.676 -0.739,0 0,-2.276 0.739,0 0,2.276 z m 0.799,-6.891 0.739,0 0,3.814 -0.739,0 0,-3.814 z m -0.799,3.814 -0.739,0 0,-3.814 0.739,0 0,3.814 z m 0.799,0.801 0.739,0 0,2.276 -0.739,0 0,-2.276 z m 1.539,-0.4 0,-4.616 c 0,-0.221 -0.179,-0.4 -0.4,-0.4 l -1.539,0 -1.538,0 c -0.221,0 -0.4,0.18 -0.4,0.4 l 0,4.615 0,2.677 -0.739,0 0,-1.138 0,-1.539 0,-19.641 c 0.878,-0.185 1.539,-0.965 1.539,-1.896 0,-0.426 -0.143,-0.817 -0.377,-1.138 l 3.031,0 c -0.234,0.32 -0.377,0.712 -0.377,1.138 0,0.931 0.661,1.711 1.538,1.896 l 0,19.642 0,1.539 0,1.138 -0.738,0 0,-2.677 z m -20,-19.646 c 0.272,-0.058 0.521,-0.173 0.738,-0.332 l 0,19.577 -0.738,0 0,-19.245 z m 3.815,19.245 -0.739,0 0,-19.577 c 0.217,0.159 0.467,0.275 0.739,0.332 l 0,19.245 z m -2.677,0.801 1.539,0 1.139,0 0,0.738 -3.815,0 0,-0.738 1.137,0 z m 1.139,-0.801 -0.739,0 0,-20.737 0.739,0 0,20.737 z m -2.277,2.34 3.815,0 0,0.737 -3.815,0 0,-0.737 z m 4.615,-0.4 0,-1.539 0,-19.642 c 0.878,-0.185 1.539,-0.965 1.539,-1.896 0,-0.426 -0.143,-0.817 -0.377,-1.138 l 3.031,0 c -0.234,0.32 -0.377,0.712 -0.377,1.138 0,0.931 0.661,1.711 1.539,1.896 l 0,19.642 0,1.539 0,1.138 -5.354,0 0,-1.138 z M 20,38.862 C 20,39.49 19.489,40 18.861,40 18.374,40 17.957,39.693 17.795,39.263 l 0.666,0 0.4,0 c 0.221,0 0.4,-0.18 0.4,-0.4 0,-0.22 -0.179,-0.4 -0.4,-0.4 l -4.615,0 c -0.221,0 -0.4,0.18 -0.4,0.4 0,0.22 0.179,0.4 0.4,0.4 l 0.4,0 0.666,0 C 15.15,39.694 14.733,40 14.246,40 c -0.628,0 -1.139,-0.51 -1.139,-1.138 0,-0.628 0.511,-1.138 1.139,-1.138 l 4.615,0 c 0.628,0 1.139,0.51 1.139,1.138 z m -5.354,1.892 c 0.272,-0.058 0.522,-0.173 0.739,-0.332 l 0,19.577 -0.739,0 0,-19.245 z m 2.277,19.245 -0.738,0 0,-20.737 0.738,0 0,20.737 z m -2.277,0.801 1.139,0 1.538,0 1.139,0 0,0.738 -3.815,0 0,-0.738 z m 3.077,-0.801 0,-19.577 c 0.217,0.159 0.467,0.275 0.739,0.332 l 0,19.245 -0.739,0 z m -3.077,2.34 3.815,0 0,0.737 -3.815,0 0,-0.737 z M 30.769,38.862 c 0,0.628 -0.511,1.138 -1.138,1.138 -0.487,0 -0.904,-0.307 -1.066,-0.737 l 0.666,0 0.4,0 c 0.221,0 0.4,-0.18 0.4,-0.4 0,-0.22 -0.179,-0.4 -0.4,-0.4 l -4.616,0 c -0.221,0 -0.4,0.18 -0.4,0.4 0,0.22 0.179,0.4 0.4,0.4 l 0.4,0 0.666,0 C 25.919,39.694 25.502,40 25.015,40 c -0.627,0 -1.138,-0.51 -1.138,-1.138 0,-0.628 0.511,-1.138 1.138,-1.138 l 4.616,0 c 0.627,0 1.138,0.51 1.138,1.138 z m -5.354,1.892 c 0.272,-0.058 0.522,-0.173 0.739,-0.332 l 0,19.577 -0.739,0 0,-19.245 z m 2.277,19.245 -0.739,0 0,-20.737 0.739,0 0,20.737 z m -2.277,0.801 1.139,0 1.539,0 1.139,0 0,0.738 -3.816,0 0,-0.738 z m 3.077,-0.801 0,-19.577 c 0.217,0.159 0.467,0.275 0.739,0.332 l 0,19.245 -0.739,0 z m -3.077,2.34 3.816,0 0,0.737 -3.816,0 0,-0.737 z M 41.539,38.862 C 41.539,39.49 41.028,40 40.4,40 39.913,40 39.496,39.693 39.334,39.263 l 0.666,0 0.4,0 c 0.221,0 0.4,-0.18 0.4,-0.4 0,-0.22 -0.179,-0.4 -0.4,-0.4 l -4.615,0 c -0.221,0 -0.4,0.18 -0.4,0.4 0,0.22 0.179,0.4 0.4,0.4 l 0.4,0 0.666,0 C 36.689,39.694 36.272,40 35.786,40 c -0.628,0 -1.139,-0.51 -1.139,-1.138 0,-0.628 0.511,-1.138 1.139,-1.138 l 4.614,0 c 0.628,0 1.139,0.51 1.139,1.138 z m -5.354,1.892 c 0.272,-0.058 0.521,-0.173 0.738,-0.332 l 0,19.577 -0.738,0 0,-19.245 z m 2.277,19.245 -0.739,0 0,-20.737 0.739,0 0,20.737 z m -2.277,0.801 1.138,0 1.539,0 1.138,0 0,0.738 -3.815,0 0,-0.738 z m 3.076,-0.801 0,-19.577 c 0.217,0.159 0.467,0.275 0.739,0.332 l 0,19.245 -0.739,0 z m -3.076,2.34 3.815,0 0,0.737 -3.815,0 0,-0.737 z M 52.308,38.862 c 0,0.628 -0.511,1.138 -1.139,1.138 -0.487,0 -0.903,-0.307 -1.065,-0.737 l 0.666,0 0.4,0 c 0.221,0 0.4,-0.18 0.4,-0.4 0,-0.22 -0.179,-0.4 -0.4,-0.4 l -4.615,0 c -0.221,0 -0.4,0.18 -0.4,0.4 0,0.22 0.179,0.4 0.4,0.4 l 0.4,0 0.666,0 C 47.459,39.694 47.042,40 46.555,40 c -0.628,0 -1.139,-0.51 -1.139,-1.138 0,-0.628 0.511,-1.138 1.139,-1.138 l 4.615,0 c 0.627,0 1.138,0.51 1.138,1.138 z m -5.354,1.892 c 0.272,-0.058 0.522,-0.173 0.739,-0.332 l 0,19.577 -0.739,0 0,-19.245 z m 2.277,19.245 -0.739,0 0,-20.737 0.739,0 0,20.737 z m -2.277,0.801 1.139,0 1.539,0 1.138,0 0,0.738 -3.815,0 0,-0.738 z m 3.077,-0.801 0,-19.577 c 0.217,0.159 0.466,0.274 0.738,0.332 l 0,19.245 -0.738,0 z m -3.077,2.34 3.815,0 0,0.737 -3.815,0 0,-0.737 z m 4.215,-25.416 -4.615,0 -6.154,0 -4.615,0 -6.154,0 -4.616,0 -6.154,0 -4.615,0 -6.154,0 -4.215,0 0,-0.738 57.662,0 0,0.738 -4.216,0 -6.154,0 z m -44.615,-6.891 1.539,0 1.539,0 1.538,0 1.539,0 1.139,0 0,0.737 -8.431,0 0,-0.737 1.137,0 z m 8.831,0 0,0.737 -0.739,0 0,-0.737 0.739,0 z m 1.938,0 1.539,0 1.538,0 1.539,0 1.539,0 1.138,0 0,0.737 -8.431,0 0,-0.737 1.138,0 z m 8.831,0 0,0.737 -0.739,0 0,-0.737 0.739,0 z m 1.938,0 1.539,0 1.538,0 1.539,0 1.539,0 1.539,0 1.538,0 1.139,0 0,0.737 -11.509,0 0,-0.737 1.138,0 z m 11.908,0 0,0.737 -0.739,0 0,-0.737 0.739,0 z m 1.939,0 1.539,0 1.538,0 1.539,0 1.539,0 1.139,0 0,0.737 -8.433,0 0,-0.737 1.139,0 z m 8.83,0 0,0.737 -0.738,0 0,-0.737 0.738,0 z m 1.939,0 1.539,0 1.539,0 1.538,0 1.539,0 1.137,0 0,0.737 -8.431,0 0,-0.737 1.139,0 z m 8.831,5.352 -57.662,0 0,-0.737 57.662,0 0,0.737 z m 0,-1.538 -57.662,0 0,-2.276 1.138,0 9.231,0 1.539,0 9.23,0 1.539,0 12.308,0 1.538,0 9.231,0 1.538,0 9.231,0 1.139,0 0,2.276 z m -56.924,-3.077 -0.738,0 0,-0.737 0.738,0 0,0.737 z m 56.924,0 -0.739,0 0,-0.737 0.739,0 0,0.737 z M 60,29.231 l -0.739,0 0,-0.738 0.739,0 0,0.738 z m -1.538,0 -0.739,0 0,-0.738 0.739,0 0,0.738 z m -1.539,0 -0.738,0 0,-0.738 0.738,0 0,0.738 z m -1.538,0 -0.739,0 0,-0.738 0.739,0 0,0.738 z m -1.539,0 -0.739,0 0,-0.738 0.739,0 0,0.738 z m -1.538,0 -0.739,0 0,-0.738 0.739,0 0,0.738 z m -1.539,0 -0.738,0 0,-0.738 0.738,0 0,0.738 z m -1.538,0 -0.739,0 0,-0.738 0.739,0 0,0.738 z m -1.539,0 -0.739,0 0,-0.738 0.739,0 0,0.738 z m -1.538,0 -0.739,0 0,-0.738 0.739,0 0,0.738 z m -1.539,0 -0.738,0 0,-0.738 0.738,0 0,0.738 z m -1.538,0 -0.739,0 0,-0.738 0.739,0 0,0.738 z m -1.538,0 -0.739,0 0,-0.738 0.739,0 0,0.738 z m -1.539,0 -0.739,0 0,-0.738 0.739,0 0,0.738 z m -1.538,0 -0.739,0 0,-0.738 0.739,0 0,0.738 z m -1.539,0 -0.738,0 0,-0.738 0.738,0 0,0.738 z m -1.538,0 -0.739,0 0,-0.738 0.739,0 0,0.738 z m -1.539,0 -0.739,0 0,-0.738 0.739,0 0,0.738 z m -1.538,0 -0.739,0 0,-0.738 0.739,0 0,0.738 z m -1.539,0 -0.738,0 0,-0.738 0.738,0 0,0.738 z m -1.538,0 -0.739,0 0,-0.738 0.739,0 0,0.738 z m -1.539,0 -0.739,0 0,-0.738 0.739,0 0,0.738 z m -1.538,0 -0.739,0 0,-0.738 0.739,0 0,0.738 z m -1.539,0 -0.738,0 0,-0.738 0.738,0 0,0.738 z m -1.538,0 -0.739,0 0,-0.738 0.739,0 0,0.738 z m -1.538,0 -0.739,0 0,-0.738 0.739,0 0,0.738 z m -1.539,0 -0.739,0 0,-0.738 0.739,0 0,0.738 z m -1.538,0 -0.739,0 0,-0.738 0.739,0 0,0.738 z m -1.539,0 -0.738,0 0,-0.738 0.738,0 0,0.738 z m -1.538,0 -0.739,0 0,-0.738 0.739,0 0,0.738 z m -1.539,0 -0.739,0 0,-0.738 0.739,0 0,0.738 z m -1.538,0 -0.739,0 0,-0.738 0.739,0 0,0.738 z m -1.539,0 -0.738,0 0,-0.738 0.738,0 0,0.738 z m -1.538,0 -0.739,0 0,-0.738 0.739,0 0,0.738 z m -1.539,0 -0.739,0 0,-0.738 0.739,0 0,0.738 z m -1.538,0 -0.739,0 0,-0.738 0.739,0 0,0.738 z m -1.539,0 -0.738,0 0,-0.738 0.738,0 0,0.738 z m -1.138,8.493 4.615,0 c 0.628,0 1.139,0.51 1.139,1.138 C 9.231,39.49 8.72,40 8.092,40 7.605,40 7.188,39.693 7.026,39.263 l 0.666,0 0.4,0 c 0.221,0 0.4,-0.18 0.4,-0.4 0,-0.22 -0.179,-0.4 -0.4,-0.4 l -4.615,0 c -0.221,0 -0.4,0.18 -0.4,0.4 0,0.22 0.179,0.4 0.4,0.4 l 0.4,0 0.666,0 C 4.381,39.694 3.964,40 3.478,40 2.85,40 2.339,39.49 2.339,38.862 c 0,-0.628 0.51,-1.138 1.138,-1.138 z m 57.396,1.538 0.666,0 0.4,0 c 0.221,0 0.4,-0.18 0.4,-0.4 0,-0.22 -0.179,-0.4 -0.4,-0.4 l -4.616,0 c -0.221,0 -0.4,0.18 -0.4,0.4 0,0.22 0.179,0.4 0.4,0.4 l 0.4,0 0.666,0 c -0.162,0.431 -0.579,0.737 -1.066,0.737 -0.627,0 -1.138,-0.51 -1.138,-1.138 0,-0.628 0.511,-1.138 1.138,-1.138 l 4.616,0 c 0.628,0 1.139,0.51 1.139,1.138 0,0.628 -0.511,1.138 -1.139,1.138 -0.488,0 -0.904,-0.306 -1.066,-0.737 z m 0.666,-10.031 -0.739,0 0,-0.738 0.739,0 0,0.738 z M 0.8,28.492 l 2.277,0 0,1.139 0,1.538 0,3.077 0,1.538 0,1.181 c -0.878,0.185 -1.539,0.965 -1.539,1.896 0,0.931 0.661,1.711 1.539,1.896 l 0,19.642 0,1.539 0,1.138 -1.139,0 c -0.221,0 -0.4,0.18 -0.4,0.4 l 0,1.539 0,1.139 -0.738,0 0,-37.662 z m 62.277,37.662 -60.739,0 0,-0.737 60.739,0 0,0.737 z m 1.538,0 -0.738,0 0,-1.138 0,-1.539 c 0,-0.221 -0.179,-0.4 -0.4,-0.4 l -1.139,0 0,-1.138 0,-1.539 0,-19.642 c 0.878,-0.185 1.539,-0.965 1.539,-1.896 0,-0.931 -0.661,-1.711 -1.539,-1.896 l 0,-1.182 0,-1.538 0,-3.077 0,-1.538 0,-1.139 2.277,0 0,37.662 z"
     id="path7822"
     inkscape:connector-curvature="0"
     style="fill:#000000" /></svg>