<?xml version="1.0" encoding="UTF-8" standalone="no"?>
<svg
   xmlns:dc="http://purl.org/dc/elements/1.1/"
   xmlns:cc="http://creativecommons.org/ns#"
   xmlns:rdf="http://www.w3.org/1999/02/22-rdf-syntax-ns#"
   xmlns:svg="http://www.w3.org/2000/svg"
   xmlns="http://www.w3.org/2000/svg"
   xmlns:sodipodi="http://sodipodi.sourceforge.net/DTD/sodipodi-0.dtd"
   xmlns:inkscape="http://www.inkscape.org/namespaces/inkscape"
   version="1.1"
   x="0px"
   y="0px"
   viewBox="0 0 83.736122 79.465912"
   enable-background="new 0 0 100 100"
   xml:space="preserve"
   id="svg2"
   inkscape:version="0.91 r13725"
   sodipodi:docname="noun_2108_cc.svg"
   width="83.736122"
   height="79.465912"><metadata
     id="metadata14"><rdf:RDF><cc:Work
         rdf:about=""><dc:format>image/svg+xml</dc:format><dc:type
           rdf:resource="http://purl.org/dc/dcmitype/StillImage" /><dc:title /></cc:Work></rdf:RDF></metadata><defs
     id="defs12" /><sodipodi:namedview
     pagecolor="#ffffff"
     bordercolor="#666666"
     borderopacity="1"
     objecttolerance="10"
     gridtolerance="10"
     guidetolerance="10"
     inkscape:pageopacity="0"
     inkscape:pageshadow="2"
     inkscape:window-width="1046"
     inkscape:window-height="569"
     id="namedview10"
     showgrid="false"
     fit-margin-top="0"
     fit-margin-left="0"
     fit-margin-right="0"
     fit-margin-bottom="0"
     inkscape:zoom="1.888"
     inkscape:cx="-50.852186"
     inkscape:cy="26.73292"
     inkscape:window-x="0"
     inkscape:window-y="23"
     inkscape:window-maximized="0"
     inkscape:current-layer="svg2" /><path
     style="color:#000000;font-style:normal;font-variant:normal;font-weight:normal;font-stretch:normal;font-size:medium;line-height:normal;font-family:sans-serif;text-indent:0;text-align:start;text-decoration:none;text-decoration-line:none;text-decoration-style:solid;text-decoration-color:#000000;letter-spacing:normal;word-spacing:normal;text-transform:none;direction:ltr;block-progression:tb;writing-mode:lr-tb;baseline-shift:baseline;text-anchor:start;white-space:normal;clip-rule:nonzero;display:inline;overflow:visible;visibility:visible;opacity:1;isolation:auto;mix-blend-mode:normal;color-interpolation:sRGB;color-interpolation-filters:linearRGB;solid-color:#000000;solid-opacity:1;fill:#000000;fill-opacity:1;fill-rule:nonzero;stroke:none;stroke-width:6;stroke-linecap:butt;stroke-linejoin:miter;stroke-miterlimit:4;stroke-dasharray:none;stroke-dashoffset:0;stroke-opacity:1;color-rendering:auto;image-rendering:auto;shape-rendering:auto;text-rendering:auto;enable-background:accumulate"
     d="m 71.748047,2.9960938 c 1.069286,-0.020215 2.162216,0.1573214 3.232422,0.5527343 4.592615,1.6961278 6.905371,6.7130049 5.207031,11.3105469 -1.695859,4.591137 -6.716433,6.902824 -11.306641,5.207031 l -0.002,0 c -0.73345,-0.270678 -1.412377,-0.644429 -2.05664,-1.103515 l -1.191407,-0.847657 -19.878906,5.892578 -0.568359,1.238282 c -0.126021,0.275157 -0.266187,0.542978 -0.416016,0.796875 l -0.671875,1.140625 6.195313,20.111328 1.330078,0.533203 c 0.133066,0.05323 0.138691,0.05509 0.01563,0.0059 l 0.03711,0.01367 0.03711,0.01367 c 4.592415,1.696054 6.903882,6.714851 5.207031,11.306641 -1.697811,4.591601 -6.714921,6.901903 -11.306641,5.205078 l -0.002,0 C 45.13079,64.196462 44.659323,63.96284 44.17374,63.677771 l -1.126953,-0.662109 -22.595703,6.759766 -0.548828,1.304687 C 18.07614,75.415438 13.220173,77.566551 8.7558594,75.917969 4.1623162,74.221024 1.8536205,69.2053 3.5488281,64.611328 l 0,-0.002 C 5.2471876,60.01896 10.262697,57.710064 14.855469,59.40625 c 0.566335,0.20912 1.099744,0.472898 1.603515,0.783203 l 1.146485,0.705078 22.351562,-6.683593 0.53711,-1.347657 c 0.137242,-0.343835 0.299066,-0.679898 0.484375,-1.015625 l 0.615234,-1.115234 -6.298828,-20.457031 -1.337891,-0.53125 c -4.458642,-1.765896 -6.69028,-6.695772 -5.017578,-11.222657 1.696717,-4.591426 6.713525,-6.901755 11.304688,-5.207031 0.636007,0.235424 1.241095,0.551603 1.822265,0.9375 L 43.234375,15.027344 63.480469,9.0273438 64.0625,7.8632812 c 1.486878,-2.977117 4.47769,-4.8065421 7.685547,-4.8671874 z"
     id="path5303" /><path
     style="color:#000000;font-style:normal;font-variant:normal;font-weight:normal;font-stretch:normal;font-size:medium;line-height:normal;font-family:sans-serif;text-indent:0;text-align:start;text-decoration:none;text-decoration-line:none;text-decoration-style:solid;text-decoration-color:#000000;letter-spacing:normal;word-spacing:normal;text-transform:none;direction:ltr;block-progression:tb;writing-mode:lr-tb;baseline-shift:baseline;text-anchor:start;white-space:normal;clip-rule:nonzero;display:inline;overflow:visible;visibility:visible;opacity:1;isolation:auto;mix-blend-mode:normal;color-interpolation:sRGB;color-interpolation-filters:linearRGB;solid-color:#000000;solid-opacity:1;fill:#000000;fill-opacity:1;fill-rule:nonzero;stroke:none;stroke-width:6;stroke-linecap:butt;stroke-linejoin:miter;stroke-miterlimit:4;stroke-dasharray:none;stroke-dashoffset:0;stroke-opacity:1;color-rendering:auto;image-rendering:auto;shape-rendering:auto;text-rendering:auto;enable-background:accumulate"
     d="m 53.791016,42.234375 0.05859,0.02148 0.01172,0.01367 c -0.02504,-0.0094 -0.0452,-0.02588 -0.07031,-0.03516 z"
     id="path4" /></svg>