<?xml version="1.0" encoding="UTF-8" standalone="no"?>
<svg
   xmlns:dc="http://purl.org/dc/elements/1.1/"
   xmlns:cc="http://creativecommons.org/ns#"
   xmlns:rdf="http://www.w3.org/1999/02/22-rdf-syntax-ns#"
   xmlns:svg="http://www.w3.org/2000/svg"
   xmlns="http://www.w3.org/2000/svg"
   xmlns:sodipodi="http://sodipodi.sourceforge.net/DTD/sodipodi-0.dtd"
   xmlns:inkscape="http://www.inkscape.org/namespaces/inkscape"
   version="1.1"
   x="0px"
   y="0px"
   viewBox="0 0 73.945999 89.82"
   enable-background="new 0 0 100 100"
   xml:space="preserve"
   id="svg2"
   inkscape:version="0.91 r13725"
   sodipodi:docname="pdf.svg"
   width="73.945999"
   height="89.82"><metadata
     id="metadata22"><rdf:RDF><cc:Work
         rdf:about=""><dc:format>image/svg+xml</dc:format><dc:type
           rdf:resource="http://purl.org/dc/dcmitype/StillImage" /><dc:title></dc:title></cc:Work></rdf:RDF></metadata><defs
     id="defs20" /><sodipodi:namedview
     pagecolor="#ffffff"
     bordercolor="#666666"
     borderopacity="1"
     objecttolerance="10"
     gridtolerance="10"
     guidetolerance="10"
     inkscape:pageopacity="0"
     inkscape:pageshadow="2"
     inkscape:window-width="717"
     inkscape:window-height="480"
     id="namedview18"
     showgrid="false"
     fit-margin-top="0"
     fit-margin-left="0"
     fit-margin-right="0"
     fit-margin-bottom="0"
     inkscape:zoom="1.888"
     inkscape:cx="36.973"
     inkscape:cy="32.41"
     inkscape:window-x="0"
     inkscape:window-y="23"
     inkscape:window-maximized="0"
     inkscape:current-layer="svg2" /><path
     d="m 62.137,18.653 0,16.871 4.634,0 0,-18.653 c 0,-0.832 -0.356,-1.545 -0.95,-2.139 L 50.138,0.713 C 49.544,0.238 48.831,0 48.118,0 L 2.97,0 C 1.307,0 0,1.307 0,2.97 l 0,83.88 c 0,1.663 1.307,2.97 2.97,2.97 l 60.949,0 c 1.663,0 2.97,-1.307 2.97,-2.97 l 0,-22.099 -4.752,0 0,20.316 -57.385,0 0,-80.315 42.415,0 0,13.901 14.97,0 z"
     id="path4"
     inkscape:connector-curvature="0"
     style="fill:#000000" /><g
     id="g6"
     transform="translate(-13.027,-5.09)"><path
       d="M 55.088,51.589 C 54.808,51.536 54.245,51.51 53.399,51.51 l -1.134,0 0,3.3 1.285,0 c 0.925,0 1.544,-0.061 1.856,-0.182 0.312,-0.122 0.557,-0.312 0.734,-0.571 0.177,-0.259 0.266,-0.561 0.266,-0.904 0,-0.423 -0.124,-0.772 -0.373,-1.047 -0.249,-0.277 -0.564,-0.448 -0.945,-0.517 z"
       id="path8"
       inkscape:connector-curvature="0"
       style="fill:#000000" /><path
       d="m 67.16,52.168 c -0.285,-0.27 -0.648,-0.452 -1.087,-0.547 -0.328,-0.074 -0.97,-0.111 -1.927,-0.111 l -1.055,0 0,7.702 1.753,0 c 0.656,0 1.129,-0.037 1.42,-0.111 0.381,-0.095 0.697,-0.256 0.948,-0.484 0.251,-0.227 0.456,-0.602 0.615,-1.122 0.159,-0.521 0.238,-1.231 0.238,-2.13 0,-0.899 -0.079,-1.589 -0.238,-2.07 -0.159,-0.482 -0.381,-0.857 -0.667,-1.127 z"
       id="path10"
       inkscape:connector-curvature="0"
       style="fill:#000000" /><path
       d="m 83.598,43.862 -38.147,0 c -1.864,0 -3.375,1.511 -3.375,3.375 l 0,16.24 c 0,1.864 1.511,3.375 3.375,3.375 l 38.147,0 c 1.864,0 3.375,-1.511 3.375,-3.375 l 0,-16.24 c 0,-1.865 -1.511,-3.375 -3.375,-3.375 z M 58.435,54.92 c -0.259,0.486 -0.588,0.869 -0.988,1.146 -0.399,0.278 -0.805,0.461 -1.217,0.551 -0.561,0.111 -1.372,0.167 -2.435,0.167 l -1.531,0 0,4.386 -2.348,0 0,-11.627 3.767,0 c 1.428,0 2.358,0.058 2.792,0.174 0.666,0.174 1.224,0.554 1.674,1.138 0.449,0.584 0.674,1.339 0.674,2.264 10e-4,0.714 -0.128,1.315 -0.388,1.801 z m 11.699,3.022 c -0.291,0.846 -0.706,1.531 -1.245,2.054 -0.407,0.397 -0.957,0.706 -1.65,0.928 -0.518,0.164 -1.211,0.246 -2.078,0.246 l -4.418,0 0,-11.627 4.291,0 c 0.968,0 1.705,0.074 2.213,0.222 0.682,0.201 1.266,0.558 1.753,1.071 0.486,0.513 0.857,1.141 1.11,1.884 0.254,0.743 0.381,1.659 0.381,2.748 0,0.956 -0.119,1.781 -0.357,2.474 z m 9.667,-6.433 -5.623,0 0,2.752 4.854,0 0,1.967 -4.854,0 0,4.941 -2.348,0 0,-11.626 7.971,0 0,1.966 z"
       id="path12"
       inkscape:connector-curvature="0"
       style="fill:#000000" /></g></svg>