<?xml version="1.0" encoding="UTF-8" standalone="no"?>
<svg
   xmlns:dc="http://purl.org/dc/elements/1.1/"
   xmlns:cc="http://creativecommons.org/ns#"
   xmlns:rdf="http://www.w3.org/1999/02/22-rdf-syntax-ns#"
   xmlns:svg="http://www.w3.org/2000/svg"
   xmlns="http://www.w3.org/2000/svg"
   xmlns:sodipodi="http://sodipodi.sourceforge.net/DTD/sodipodi-0.dtd"
   xmlns:inkscape="http://www.inkscape.org/namespaces/inkscape"
   version="1.0"
   x="0px"
   y="0px"
   viewBox="0 0 67.010109 67"
   enable-background="new 0 0 100 100"
   xml:space="preserve"
   id="svg2"
   inkscape:version="0.91 r13725"
   sodipodi:docname="video.svg"
   width="67.010109"
   height="67"><metadata
     id="metadata24"><rdf:RDF><cc:Work
         rdf:about=""><dc:format>image/svg+xml</dc:format><dc:type
           rdf:resource="http://purl.org/dc/dcmitype/StillImage" /><dc:title></dc:title></cc:Work></rdf:RDF></metadata><defs
     id="defs22" /><sodipodi:namedview
     pagecolor="#ffffff"
     bordercolor="#666666"
     borderopacity="1"
     objecttolerance="10"
     gridtolerance="10"
     guidetolerance="10"
     inkscape:pageopacity="0"
     inkscape:pageshadow="2"
     inkscape:window-width="1032"
     inkscape:window-height="528"
     id="namedview20"
     showgrid="false"
     fit-margin-top="0"
     fit-margin-left="0"
     fit-margin-right="0"
     fit-margin-bottom="0"
     inkscape:zoom="3.6300504"
     inkscape:cx="33.230957"
     inkscape:cy="33.5"
     inkscape:window-x="0"
     inkscape:window-y="23"
     inkscape:window-maximized="0"
     inkscape:current-layer="svg2" /><path
     style="fill:#000000;stroke:#000000;stroke-width:2;stroke-miterlimit:4;stroke-dasharray:none;stroke-opacity:1"
     inkscape:connector-curvature="0"
     id="path10"
     d="M 65.1,1 2,1 C 1.4,1 1,1.4 1,2 l 0,63 c 0,0.6 0.4,1 1,1 l 63,0 c 0.6,0 1,-0.4 1,-1 L 66,2 C 66.1,1.4 65.6,1 65.1,1 Z M 64.1,64 3,64 3,3 64,3 64,64 Z" /><path
     style="fill:#000000;stroke:#000000;stroke-opacity:1"
     inkscape:connector-curvature="0"
     id="path12"
     d="m 18.7,47.7 c 0,0 0,0 0,0 l 28.1,0 c 4.4,0 7.9,-3.6 7.9,-7.9 l 0,-13.2 c 0,-4.4 -3.6,-7.9 -7.9,-7.9 l -28.1,0 c -1.4,0 -2.7,0.5 -3.6,1.5 -1,1 -1.5,2.3 -1.5,3.6 l 0,18.8 c 0,2.8 2.3,5.1 5.1,5.1 z M 16.5,21.6 c 0.6,-0.6 1.4,-0.9 2.2,-0.9 l 28.1,0 c 3.3,0 5.9,2.7 5.9,5.9 l 0,13.2 c 0,3.3 -2.7,5.9 -5.9,5.9 l -28.1,0 0,1 0,-1 c -1.7,0 -3.1,-1.4 -3.1,-3.1 l 0,-18.8 c -0.1,-0.8 0.3,-1.6 0.9,-2.2 z" /><polygon
     style="fill:#000000"
     id="polygon14"
     points="58,49.1 45.7,42.7 45.7,55.7 "
     transform="translate(-17,-16.5)" /></svg>