<?xml version="1.0" encoding="UTF-8" standalone="no"?>
<svg
   xmlns:dc="http://purl.org/dc/elements/1.1/"
   xmlns:cc="http://creativecommons.org/ns#"
   xmlns:rdf="http://www.w3.org/1999/02/22-rdf-syntax-ns#"
   xmlns:svg="http://www.w3.org/2000/svg"
   xmlns="http://www.w3.org/2000/svg"
   xmlns:sodipodi="http://sodipodi.sourceforge.net/DTD/sodipodi-0.dtd"
   xmlns:inkscape="http://www.inkscape.org/namespaces/inkscape"
   version="1.1"
   x="0px"
   y="0px"
   viewBox="0 0 92.343498 92.343246"
   enable-background="new 0 0 100 100"
   xml:space="preserve"
   id="svg9083"
   inkscape:version="0.91 r13725"
   sodipodi:docname="noun_251228_cc.svg"
   width="92.343498"
   height="92.343246"><metadata
     id="metadata9101"><rdf:RDF><cc:Work
         rdf:about=""><dc:format>image/svg+xml</dc:format><dc:type
           rdf:resource="http://purl.org/dc/dcmitype/StillImage" /><dc:title></dc:title></cc:Work></rdf:RDF></metadata><defs
     id="defs9099" /><sodipodi:namedview
     pagecolor="#ffffff"
     bordercolor="#666666"
     borderopacity="1"
     objecttolerance="10"
     gridtolerance="10"
     guidetolerance="10"
     inkscape:pageopacity="0"
     inkscape:pageshadow="2"
     inkscape:window-width="717"
     inkscape:window-height="480"
     id="namedview9097"
     showgrid="false"
     fit-margin-top="0"
     fit-margin-left="0"
     fit-margin-right="0"
     fit-margin-bottom="0"
     inkscape:zoom="1.888"
     inkscape:cx="46.17125"
     inkscape:cy="33.671"
     inkscape:window-x="0"
     inkscape:window-y="23"
     inkscape:window-maximized="0"
     inkscape:current-layer="svg9083" /><g
     id="g9085"
     transform="translate(-3.82875,-3.82775)"><path
       d="m 79.372,20.631 c 0,0 -0.001,-0.001 -0.001,-0.001 0,0 -10e-4,-10e-4 -10e-4,-10e-4 L 65.468,6.727 c -1.516,-1.515 -3.971,-1.515 -5.486,0 -1.515,1.515 -1.515,3.971 0,5.486 l 11.16,11.16 -47.769,47.768 -11.16,-11.16 c -1.516,-1.514 -3.971,-1.514 -5.486,0 -1.515,1.515 -1.515,3.971 0,5.486 L 20.628,79.37 c 0,0 0.001,10e-4 0.001,10e-4 0,0 10e-4,0.001 10e-4,0.001 l 13.901,13.901 c 0.758,0.757 1.75,1.136 2.743,1.136 0.993,0 1.985,-0.379 2.743,-1.136 1.515,-1.515 1.515,-3.971 0,-5.486 L 28.859,76.628 76.628,28.859 87.787,40.018 c 0.758,0.757 1.75,1.136 2.743,1.136 0.993,0 1.985,-0.378 2.743,-1.136 1.515,-1.515 1.515,-3.971 0,-5.486 L 79.372,20.631 Z"
       id="path9087"
       inkscape:connector-curvature="0"
       style="fill:#000000" /><path
       d="M 95.036,20.027 79.974,4.964 c -1.516,-1.515 -3.971,-1.515 -5.486,0 -1.515,1.515 -1.515,3.971 0,5.486 L 89.55,25.513 c 0.758,0.757 1.75,1.136 2.743,1.136 0.993,0 1.985,-0.378 2.743,-1.136 1.515,-1.515 1.515,-3.971 0,-5.486 z"
       id="path9089"
       inkscape:connector-curvature="0"
       style="fill:#000000" /><path
       d="m 10.451,74.487 c -1.516,-1.514 -3.971,-1.514 -5.486,0 -1.515,1.515 -1.515,3.972 0,5.486 l 15.062,15.062 c 0.758,0.757 1.75,1.136 2.743,1.136 0.993,0 1.985,-0.379 2.743,-1.136 1.515,-1.515 1.515,-3.972 0,-5.486 L 10.451,74.487 Z"
       id="path9091"
       inkscape:connector-curvature="0"
       style="fill:#000000" /></g></svg>