<?xml version="1.0" encoding="UTF-8" standalone="no"?>
<svg
   xmlns:dc="http://purl.org/dc/elements/1.1/"
   xmlns:cc="http://creativecommons.org/ns#"
   xmlns:rdf="http://www.w3.org/1999/02/22-rdf-syntax-ns#"
   xmlns:svg="http://www.w3.org/2000/svg"
   xmlns="http://www.w3.org/2000/svg"
   xmlns:sodipodi="http://sodipodi.sourceforge.net/DTD/sodipodi-0.dtd"
   xmlns:inkscape="http://www.inkscape.org/namespaces/inkscape"
   version="1.1"
   x="0px"
   y="0px"
   viewBox="0 0 83.5 85.099998"
   enable-background="new 0 0 100 100"
   xml:space="preserve"
   id="svg4194"
   inkscape:version="0.91 r13725"
   sodipodi:docname="noun_143916_cc.svg"
   width="83.5"
   height="85.099998"><metadata
     id="metadata4206"><rdf:RDF><cc:Work
         rdf:about=""><dc:format>image/svg+xml</dc:format><dc:type
           rdf:resource="http://purl.org/dc/dcmitype/StillImage" /><dc:title></dc:title></cc:Work></rdf:RDF></metadata><defs
     id="defs4204" /><sodipodi:namedview
     pagecolor="#ffffff"
     bordercolor="#666666"
     borderopacity="1"
     objecttolerance="10"
     gridtolerance="10"
     guidetolerance="10"
     inkscape:pageopacity="0"
     inkscape:pageshadow="2"
     inkscape:window-width="717"
     inkscape:window-height="480"
     id="namedview4202"
     showgrid="false"
     fit-margin-top="0"
     fit-margin-left="0"
     fit-margin-right="0"
     fit-margin-bottom="0"
     inkscape:zoom="1.888"
     inkscape:cx="-10.09477"
     inkscape:cy="20.487787"
     inkscape:window-x="0"
     inkscape:window-y="23"
     inkscape:window-maximized="0"
     inkscape:current-layer="svg4194" /><path
     d="m 11,51 0,-6.5 c 0,-2.9 2.4,-5.3 5.3,-5.3 l 14.7,0 0,-6.1 c 0,-1.1 0.9,-2 2,-2 1.1,0 2,0.9 2,2 l 0,14.7 c 0,0.7 0.6,1.3 1.3,1.3 l 15.8,0 c 1.1,0 2,0.9 2,2 0,1.1 -0.9,2 -2,2 l -15.8,0 C 33.4,53.1 31,50.7 31,47.8 l 0,-4.7 -14.7,0 c -0.7,0 -1.3,0.6 -1.3,1.3 l 0,6.5 c 0,1.1 -0.9,2 -2,2 -1.1,0 -2,-0.8 -2,-1.9 z m 58.8,15 c -1.1,0 -2,0.9 -2,2 l 0,1.7 c 0,0.7 -0.6,1.3 -1.3,1.3 l -14.3,0 c -0.7,0 -1.3,-0.6 -1.3,-1.3 0,-3.1 -3.3,-5.7 -6.1,-5.7 l -12.5,0 c -1.1,0 -2,0.9 -2,2 0,1.1 0.9,2 2,2 l 12.5,0 c 0.9,0 2.1,1.1 2.1,1.7 0,2.9 2.4,5.3 5.3,5.3 l 14.3,0 c 2.9,0 5.3,-2.4 5.3,-5.3 l 0,-1.7 c 0,-1.1 -0.9,-2 -2,-2 z M 26,63.2 c 0,0 0,0 0,0 l 0,14.4 c 0,0.8 -0.4,1.4 -1.1,1.8 l -11,5.5 c -0.1,0 -0.2,0.1 -0.2,0.1 -0.1,0 -0.1,0 -0.2,0.1 -0.2,0 -0.3,0 -0.5,0 0,0 0,0 0,0 -0.2,0 -0.3,0 -0.5,-0.1 -0.1,0 -0.1,0 -0.2,-0.1 -0.1,0 -0.2,0 -0.2,-0.1 L 1.1,79.3 C 0.4,79 0,78.3 0,77.5 L 0,63.3 c 0,0 0,-0.1 0,-0.1 0,-0.1 0,-0.2 0,-0.3 0,0 0,-0.1 0,-0.1 0.1,-0.3 0.2,-0.6 0.4,-0.8 0,0 0.1,-0.1 0.1,-0.1 0.1,-0.1 0.2,-0.2 0.3,-0.2 0,0 0,0 0.1,-0.1 0,0 0,0 0.1,0 0,0 0.1,0 0.1,-0.1 l 11,-5.5 c 0.6,-0.3 1.2,-0.3 1.8,0 l 11,5.5 c 0,0 0.1,0 0.1,0.1 0,0 0,0 0.1,0 0,0 0,0 0.1,0.1 0.1,0.1 0.2,0.1 0.3,0.2 0,0 0.1,0.1 0.1,0.1 0.2,0.2 0.4,0.5 0.4,0.8 0,0 0,0.1 0,0.1 0,0.1 0,0.2 0,0.3 z M 6.4,63.3 13,66.6 19.6,63.3 13,60 6.4,63.3 Z M 11,70 4,66.5 l 0,9.8 7,3.5 0,-9.8 z m 11,-3.5 -7,3.5 0,9.8 7,-3.5 0,-9.8 z M 80.3,50.6 c 0,6.2 -5.1,11.3 -11.3,11.3 -6.2,0 -11.3,-5.1 -11.3,-11.3 0,-6.2 5.1,-11.3 11.3,-11.3 6.2,0 11.3,5.1 11.3,11.3 z m -4,0 c 0,-4 -3.3,-7.3 -7.3,-7.3 -4,0 -7.3,3.3 -7.3,7.3 0,4 3.3,7.3 7.3,7.3 4,0 7.3,-3.3 7.3,-7.3 z M 19.1,19.6 C 19,19 19.1,18.4 19.4,18 L 31.4,0.9 C 31.4,0.8 31.5,0.8 31.6,0.7 31.7,0.6 31.7,0.6 31.8,0.5 32,0.2 32.5,0 33,0 c 0,0 0,0 0,0 0,0 0,0 0,0 0,0 0,0 0,0 0,0 0,0 0,0 0,0 0,0 0,0 0.5,0 1,0.2 1.3,0.5 0.1,0.1 0.1,0.1 0.2,0.2 0.1,0.1 0.1,0.1 0.2,0.2 l 12,17.1 c 0.3,0.5 0.4,1.1 0.3,1.6 -0.1,0.6 -0.5,1 -1,1.3 l -12,6 c -0.1,0 -0.1,0.1 -0.2,0.1 -0.1,0 -0.2,0.1 -0.3,0.1 -0.2,0 -0.3,0 -0.5,0 -0.3,0 -0.6,-0.1 -0.8,-0.2 0,0 0,0 0,0 0,0 -0.1,0 -0.1,0 l -12,-6 c -0.5,-0.3 -0.9,-0.7 -1,-1.3 z m 15.9,2.3 7,-3.5 -7,-10 0,13.5 z m -11,-3.6 7,3.5 0,-13.5 -7,10 z m 44.2,26.4 c -2.5,0.3 -4.5,2.1 -4.9,4.6 -0.2,1.1 0.5,2.1 1.6,2.3 0.1,0 0.2,0 0.4,0 0.9,0 1.8,-0.7 2,-1.6 0.1,-0.7 0.7,-1.3 1.4,-1.3 1.1,-0.1 1.9,-1.1 1.8,-2.2 -0.2,-1.1 -1.3,-1.9 -2.3,-1.8 z M 82.9,27.6 c -3.8,-3.8 -8.8,-5.8 -14.1,-5.8 -5.3,0 -10.3,2.1 -14.1,5.8 -0.8,0.8 -0.8,2 0,2.8 0.8,0.8 2,0.8 2.8,0 3,-3 7,-4.7 11.3,-4.7 4.3,0 8.3,1.7 11.3,4.7 0.4,0.4 0.9,0.6 1.4,0.6 0.5,0 1,-0.2 1.4,-0.6 0.8,-0.8 0.8,-2 0,-2.8 z m -19.8,8.3 c 1.5,-1.5 3.6,-2.4 5.8,-2.4 2.2,0 4.2,0.8 5.8,2.4 0.4,0.4 0.9,0.6 1.4,0.6 0.5,0 1,-0.2 1.4,-0.6 0.8,-0.8 0.8,-2 0,-2.8 -2.3,-2.3 -5.3,-3.6 -8.6,-3.6 -3.2,0 -6.3,1.3 -8.6,3.6 -0.8,0.8 -0.8,2 0,2.8 0.7,0.8 2,0.8 2.8,0 z"
     id="path4196"
     inkscape:connector-curvature="0" /></svg>